# xmcd
#
# Track frame offsets:
#	150
#	14336
#	28760
#	41851
#	56091
#	71862
#	83551
#	96114
#	110584
#	124805
#	134831
#	147958
#	161368
#	174595
#	185280
#	198990
#	209895
#	222817
#	234039
#	248896
#
# Disc length: 3488 seconds
#
# Revision: 1
# Processed by: cddbd v1.5.2PL0 Copyright (c) Steve Scherf et al.
# Submitted via: EasyCDDAExtractor 10.0.3.1
#
DISCID=2a0d9e14
DTITLE=Various Artist - 100 Chansons Formidables [CD3)
DYEAR=2005
DGENRE=Chanson
TTITLE0=Lucienne Delyle - Mon Amant De Saint-Jean
TTITLE1=Joséphine Baker - J'ai Deux Amours
TTITLE2=Line Renaud - Ma Cabane Au Canada
TTITLE3=Tino Rossi - Marinella
TTITLE4=Mouloudji - Un Jour Tu Verras
TTITLE5=Gilbert Bécaud - Quand Tu Danses
TTITLE6=Charles Trénet - Je Chante
TTITLE7=Edith Piaf - L'accordeoniste
TTITLE8=Dario Moreno - Quizaq Quizas...
TTITLE9=Gilbert Bécaud - Viens
TTITLE10=Charles Aznavour - Les Cris De Ma Ville
TTITLE11=Damia - Les Goelands
TTITLE12=Francis Lemarque - Bal, Petit Bal
TTITLE13=Les Freres Jacques - En Sortant De L'école
TTITLE14=Juliette Greco - Je Suis Comme Je Suis
TTITLE15=Henri Salvador - Le Loup, La Biche Et Le Chevalier
TTITLE16=Léo Ferré - Le Pont Mirabeau
TTITLE17=Yves Montand - Les Grands Boulevards
TTITLE18=Edith Piaf - Padam Padam
TTITLE19=Yves Montand - Mon Pote Le Gitan
EXTD=YEAR: 2005
EXTT0=
EXTT1=
EXTT2=
EXTT3=
EXTT4=
EXTT5=
EXTT6=
EXTT7=
EXTT8=
EXTT9=
EXTT10=
EXTT11=
EXTT12=
EXTT13=
EXTT14=
EXTT15=
EXTT16=
EXTT17=
EXTT18=
EXTT19=
PLAYORDER=
